# xmcd CD database file
#
# Track frame offsets:
#	182
#	12532
#	23707
#	34552
#	43285
#	54702
#	66397
#	84855
#	97035
#	103400
#	109577
#	120800
#	138705
#	146605
#	157087
#	166162
#	174855
#	190810
#	198687
#	208077
#
# Disc length: 2910 seconds
#
# Revision: 2
# Processed by: cddbd v1.4PL0 Copyright (c) Steve Scherf et al.
# Submitted via: CDex 1.51
#
DISCID=1e0b5c14
DTITLE=Scotty Stoneman - Bil Emerson - Blue Grass Fiddlin' Banjo Hits
DYEAR=1983
DGENRE=Bluegrass
TTITLE0=Low Down Billy
TTITLE1=Talkin' Fiddlin' Blues
TTITLE2=Ole Joe Clarck
TTITLE3=Party Time
TTITLE4=Fire In The Mountain
TTITLE5=Billy Low ground
TTITLE6=8th Of January
TTITLE7=Baby Sue
TTITLE8=Runnin' Wild
TTITLE9=Banjo Pickin' Time
TTITLE10=Orange Blossom Hoedown
TTITLE11=The Cacklin' Hen
TTITLE12=Feelin' Bad
TTITLE13=Wildflower Flower
TTITLE14=Ole Joe Clark
TTITLE15=Weepin' Willow
TTITLE16=The Mocking Bird
TTITLE17=String Time
TTITLE18=Honeysuckle
TTITLE19=Lonesome Road Blues
EXTD=YEAR: 1983
EXTT0=
EXTT1=
EXTT2=
EXTT3=
EXTT4=
EXTT5=
EXTT6=
EXTT7=
EXTT8=
EXTT9=
EXTT10=
EXTT11=
EXTT12=
EXTT13=
EXTT14=
EXTT15=
EXTT16=
EXTT17=
EXTT18=
EXTT19=
PLAYORDER=
